PathFileType	4	(X/Y/Z)	pose_F01_0-89.trc
DataRate	CameraRate	NumFrames	NumMarkers	Units	OrigDataRate	OrigDataStartFrame	OrigNumFrames
30	30	7	21	m	30	22	89
Frame#	Time	CHip			RHip			RKnee			RAnkle			RBigToe			RSmallToe			RHeel			LHip			LKnee			LAnkle			LBigToe			LSmallToe			LHeel			Neck			Nose			RShoulder			RElbow			RWrist			LShoulder			LElbow			LWrist			
		X1	Y1	Z1	X2	Y2	Z2	X3	Y3	Z3	X4	Y4	Z4	X5	Y5	Z5	X6	Y6	Z6	X7	Y7	Z7	X8	Y8	Z8	X9	Y9	Z9	X10	Y10	Z10	X11	Y11	Z11	X12	Y12	Z12	X13	Y13	Z13	X14	Y14	Z14	X15	Y15	Z15	X16	Y16	Z16	X17	Y17	Z17	X18	Y18	Z18	X19	Y19	Z19	X20	Y20	Z20	X21	Y21	Z21	
22	0.7333333333333333	-0.24963132743052371	1.833133830036006	-0.5084513353855455	-0.263399946081861	1.8278423147404368	-0.43982695639205494	-0.2569925248505248	1.717405077238628	-0.4571959792178864	-0.23617752880919282	1.6136640673274332	-0.4413703695802904							-0.22638552464021186	1.6123964979942877	-0.4246374230687787	-0.23322940223630997	1.8324962676242034	-0.5736504894677399	-0.23819973170218736	1.7022939932679333	-0.5559750890750428	-0.2185205390324726	1.6113646605605323	-0.5016269895724365	-0.21910110380702325	1.5683460253217354	-0.5587694937546674	-0.2080152618170154	1.587321202290445	-0.5768019074783618	-0.21264218055935696	1.6131391267722188	-0.5032219231879591	-0.24227741863013588	1.982303496931849	-0.5167169943069491	-0.252251696922583	2.0546166663870395	-0.5651005190021056	-1.8438729442757829	1.8919195184308775	1.3429243833828832	-0.275534391857425	1.8967364719897757	-0.3936750690281914	-0.28258933988585455	1.8236320242038022	-0.3820760505314916	-0.2140135983032761	1.9856440638751263	-0.614483910755159	-0.20982533666940106	1.9062261920274395	-0.6310701048515766	-0.21027673214717868	1.8360522210423746	-0.6367909433741619
23	0.7666666666666667	-0.24980001801690857	1.8350883703067262	-0.5087711996093188	-0.26142452642019376	1.829882973709307	-0.44230319591625655	-0.2569925248505248	1.717405077238628	-0.4571959792178864	-0.23617752880919282	1.6136640673274332	-0.4413703695802904							-0.22638552464021186	1.6123964979942877	-0.4246374230687787	-0.2335568028057376	1.836204086963386	-0.5740401712785155	-0.23819973170218736	1.7022939932679333	-0.5559750890750428	-0.2185205390324726	1.6113646605605323	-0.5016269895724365	-0.21910110380702325	1.5683460253217354	-0.5587694937546674	-0.2080152618170154	1.587321202290445	-0.5768019074783618	-0.21264218055935696	1.6131391267722188	-0.5032219231879591	-0.24225650761100528	1.982514878087185	-0.5167068457187983	-0.2503572599910162	2.05580368819241	-0.5677211662295124	-1.843701078939157	1.891870973791345	1.342639302951815	-0.2753907251486694	1.8984627227962645	-0.3937550280977671	-0.28165388031256694	1.8258521217197439	-0.3876195132063506	-0.2139866744586411	1.9858668646919604	-0.6144588896297005	-0.21270376935092994	1.9102063564837775	-0.632257823251263	-0.2082769712328106	1.8379198933234329	-0.6392946843153624
24	0.8	-0.2506389519436504	1.8335374376281992	-0.5119750680014753	-0.2622970601271075	1.8291649762861921	-0.4454128590480075	-0.2569925248505248	1.717405077238628	-0.4571959792178864	-0.23617752880919282	1.6136640673274332	-0.4413703695802904							-0.22638552464021186	1.6123964979942877	-0.4246374230687787	-0.2334050341781417	1.8344866145844292	-0.5740314624602186	-0.23819973170218736	1.7022939932679333	-0.5559750890750428	-0.2185205390324726	1.6113646605605323	-0.5016269895724365	-0.21910110380702325	1.5683460253217354	-0.5587694937546674	-0.2080152618170154	1.587321202290445	-0.5768019074783618	-0.21264218055935696	1.6131391267722188	-0.5032219231879591	-0.24032266805257932	1.9824912376051456	-0.5188850841240865	-0.25120574252811284	2.057035650957551	-0.5706806052205773	-1.8429302685128224	1.8918707024576873	1.3414512298884098	-0.2754007471950892	1.898358040613256	-0.39375279910336547	-0.2815240353077375	1.8248257635501544	-0.38744516304409676	-0.21387603814939007	1.985872221056177	-0.6144889722167258	-0.2098359459340759	1.906811800832889	-0.6310701904067246	-0.20818010715158494	1.8366780488220125	-0.6391891895977581
25	0.8333333333333334	-0.24931695331094972	1.8328556109274938	-0.5173960555906663	-0.26124990796057773	1.8305814388841013	-0.450989274228982	-0.2569925248505248	1.717405077238628	-0.4571959792178864	-0.23617752880919282	1.6136640673274332	-0.4413703695802904							-0.22638552464021186	1.6123964979942877	-0.4246374230687787	-0.23112206783070074	1.834379180519053	-0.5763345206508111	-0.23819973170218736	1.7022939932679333	-0.5559750890750428	-0.2185205390324726	1.6113646605605323	-0.5016269895724365	-0.21910110380702325	1.5683460253217354	-0.5587694937546674	-0.2080152618170154	1.587321202290445	-0.5768019074783618	-0.21264218055935696	1.6131391267722188	-0.5032219231879591	-0.24035858912542188	1.9839262647558606	-0.5193006121435727	-0.2511683631573037	2.0570595041495485	-0.5707468455127199	-0.2626868128929958	1.9836447148764502	-0.42938775979026433	-0.27555459387551545	1.8966982150944147	-0.3936759371556733	-0.2814962856110246	1.8274277283039995	-0.3878395977907545	-0.21388553947288244	1.9858798562815052	-0.6145756767850635	-0.20921937018158865	1.906123493047651	-0.6397982802668918	-0.2085683968044668	1.8324125318238764	-0.6422281584990155
26	0.8666666666666667	-0.24842301632322428	1.8348402172078604	-0.5143352582766954	-0.26021929112156217	1.8309558639623869	-0.4477857587812037	-0.2569925248505248	1.717405077238628	-0.4571959792178864	-0.23617752880919282	1.6136640673274332	-0.4413703695802904							-0.22638552464021186	1.6123964979942877	-0.4246374230687787	-0.23116874875279367	1.8362184402710453	-0.5763578709393061	-0.23819973170218736	1.7022939932679333	-0.5559750890750428	-0.2185205390324726	1.6113646605605323	-0.5016269895724365	-0.21910110380702325	1.5683460253217354	-0.5587694937546674	-0.2080152618170154	1.587321202290445	-0.5768019074783618	-0.21264218055935696	1.6131391267722188	-0.5032219231879591	-0.24123740420619577	1.984414543580589	-0.5223663021747914	-0.2500482165050538	2.057483575503413	-0.5758689399849904	-0.2627036119381951	1.9838928082789182	-0.429548740502074	-0.2773777315319562	1.8978784977366776	-0.3913998775790795	-0.28967197405505335	1.8308471338667662	-0.4059669694985799	-0.21193913926955338	1.9874706559696638	-0.6171271268567613	-0.20280124714695075	1.9092967262977603	-0.6469724533866603	-0.2106471807094175	1.8327682030026948	-0.6656591879489555
27	0.9	-0.24759652631419238	1.831926608059356	-0.5106689276670385	-0.25992229308723963	1.8285658465571406	-0.44579319758262415	-0.2569925248505248	1.717405077238628	-0.4571959792178864	-0.23617752880919282	1.6136640673274332	-0.4413703695802904							-0.22638552464021186	1.6123964979942877	-0.4246374230687787	-0.23092915703607447	1.8311541413651602	-0.5755412885560582	-0.23819973170218736	1.7022939932679333	-0.5559750890750428	-0.2185205390324726	1.6113646605605323	-0.5016269895724365	-0.21910110380702325	1.5683460253217354	-0.5587694937546674	-0.2080152618170154	1.587321202290445	-0.5768019074783618	-0.21264218055935696	1.6131391267722188	-0.5032219231879591	-0.23722718853708277	1.9844165631702735	-0.5269204711912778	-0.24889525130920612	2.0586330351024973	-0.5809854695357738	-0.26171240296522197	1.9843550149355853	-0.4349766953463611	-0.27580364071122593	1.9088097819580718	-0.37249904397718303	-0.28772849323800126	1.8583604570614913	-0.41773348791033676	-0.21267424655657632	1.9864013220245686	-0.6199346408873265	-0.19084057176423708	1.9151021075070778	-0.6650985007888083	-0.2041255475785699	1.851434557054868	-0.7072202355844086
28	0.9333333333333333	-0.24677003630516045	1.8290129989108512	-0.5070025970573817	-0.2596252950529171	1.8261758291518941	-0.44380063638404454	-0.2569925248505248	1.717405077238628	-0.4571959792178864	-0.23617752880919282	1.6136640673274332	-0.4413703695802904							-0.22638552464021186	1.6123964979942877	-0.4246374230687787	-0.231654109883818	1.829457234533031	-0.5753693027364027	-0.23819973170218736	1.7022939932679333	-0.5559750890750428	-0.2185205390324726	1.6113646605605323	-0.5016269895724365	-0.21910110380702325	1.5683460253217354	-0.5587694937546674	-0.2080152618170154	1.587321202290445	-0.5768019074783618	-0.21264218055935696	1.6131391267722188	-0.5032219231879591	-0.23514414345255336	1.9852583014372818	-0.5375627629079225	-0.249088722363456	2.0545903928979548	-0.5809644861455433	-1.7933545719215986	1.8915201825071022	1.2518945270873274	-0.2885500310308265	1.9075543375347435	-0.377228965604487	-0.2829067420563755	1.9049184937086199	-0.441642221833657	-0.21139133265138674	1.9868397257700077	-0.6253593009677428	-0.19089975004022722	1.924582510284124	-0.6780578416954584	-0.20466714925715068	1.8793812257750344	-0.7111427956426793
